<svg xmlns="http://www.w3.org/2000/svg" xmlns:xlink="http://www.w3.org/1999/xlink" width="500" zoomAndPan="magnify" viewBox="0 0 375 374.999991" height="500" preserveAspectRatio="xMidYMid meet" version="1.0"><defs><g/></defs><path fill="rgb(0%, 0%, 0%)" d="M 152.074219 160.664062 C 148.058594 164.359375 144.941406 170.21875 145.261719 175.761719 C 145.570312 181.035156 151.457031 183.707031 155.964844 181.929688 C 156.917969 183.164062 158.425781 184.023438 160.585938 184.296875 C 164.875 184.851562 169.488281 184.015625 173.359375 181.929688 C 173.398438 181.976562 173.433594 182.027344 173.476562 182.074219 C 178.570312 187.597656 186.394531 186.039062 192.433594 182.644531 C 192.550781 182.796875 192.703125 182.933594 192.925781 183.03125 C 198.109375 185.449219 202.933594 184.65625 206.863281 182.074219 C 210.394531 184.820312 215.667969 181.597656 219.199219 179.882812 C 223.429688 177.816406 226.285156 174.363281 227.398438 169.804688 C 228.480469 165.363281 228.128906 159.511719 225.1875 155.875 C 221.957031 151.90625 215.492188 152.496094 211.699219 155.113281 C 210.339844 154.417969 208.785156 153.96875 207.144531 153.746094 C 208.03125 153.097656 208.824219 152.289062 209.488281 151.25 C 212.671875 146.328125 211.4375 136.769531 207.503906 132.664062 C 210.554688 127.96875 210.695312 122.230469 206.699219 118 C 210.316406 113.785156 211.101562 106.625 207.84375 102.214844 C 207.800781 102.15625 207.753906 102.117188 207.710938 102.0625 C 211.054688 98.515625 211.160156 91.941406 207.933594 88.382812 C 207.90625 88.351562 207.867188 88.332031 207.84375 88.304688 C 210.539062 85.488281 211.464844 81.414062 209.957031 77.796875 C 220.300781 84.019531 229.902344 70.976562 229.710938 61.035156 C 229.558594 53.207031 224.101562 42.679688 215.339844 48.613281 C 212.589844 46.308594 207.664062 46.914062 204.59375 48.445312 C 201.824219 46.394531 196.707031 47.199219 193.574219 48.515625 C 191.757812 45.75 187.21875 45.886719 183.023438 46.832031 C 180.9375 37.542969 166.71875 47.535156 162.992188 50.652344 C 157.933594 54.871094 153.25 61.683594 153.539062 68.472656 C 153.792969 74.742188 159.871094 78.550781 165.300781 75.796875 C 166.863281 77.421875 168.984375 78.234375 171.234375 78.371094 C 169.390625 81.394531 169.988281 85.398438 171.765625 88.5 C 172.316406 89.457031 173.089844 90.21875 173.996094 90.835938 C 171.613281 96.023438 170.09375 101.574219 174.285156 106.277344 C 171.070312 109.199219 169.523438 115.71875 171.628906 119.511719 C 172.113281 120.382812 172.691406 121.089844 173.324219 121.679688 C 169.667969 124.871094 169.074219 130.859375 171.613281 134.921875 C 171.960938 135.480469 172.367188 135.988281 172.808594 136.453125 C 169.523438 140.667969 167.550781 146.425781 168.503906 151.707031 C 163.542969 150.207031 154.722656 158.226562 152.074219 160.664062 " fill-opacity="1" fill-rule="nonzero"/><path fill="rgb(42.349243%, 79.219055%, 91.758728%)" d="M 211.496094 166.664062 C 211.832031 164.773438 211.785156 163.574219 211.589844 163.546875 C 211.375 163.507812 211.054688 164.640625 210.464844 166.398438 C 209.871094 168.152344 208.976562 170.550781 207.460938 172.855469 C 206.699219 173.996094 205.847656 174.992188 204.988281 175.804688 C 204.121094 176.609375 203.25 177.226562 202.472656 177.691406 C 200.957031 178.585938 199.757812 178.960938 199.851562 179.195312 C 199.902344 179.34375 201.0625 179.390625 202.945312 178.648438 C 203.859375 178.273438 204.890625 177.691406 205.90625 176.851562 C 206.910156 176.007812 207.886719 174.9375 208.71875 173.695312 C 210.367188 171.167969 211.140625 168.554688 211.496094 166.664062 Z M 213.667969 162.097656 C 216.097656 172.082031 205.136719 184.898438 195.007812 181.019531 C 195.378906 180.75 195.734375 180.484375 196.082031 180.214844 C 203.5625 174.34375 203.328125 163.671875 196.878906 157.394531 C 202.757812 155.453125 211.84375 154.570312 213.667969 162.097656 " fill-opacity="1" fill-rule="nonzero"/><path fill="rgb(42.349243%, 79.219055%, 91.758728%)" d="M 195.933594 102.484375 C 197.964844 101.742188 199.160156 101.144531 199.101562 100.957031 C 199.035156 100.753906 197.714844 100.992188 195.636719 101.457031 C 193.550781 101.914062 190.6875 102.609375 187.511719 103.011719 C 184.351562 103.40625 181.417969 103.296875 179.710938 102.324219 C 178.859375 101.875 178.3125 101.25 178.011719 100.804688 C 177.671875 100.339844 177.5 100.007812 177.394531 100.058594 C 177.316406 100.097656 177.277344 100.4375 177.472656 101.046875 C 177.664062 101.683594 178.171875 102.542969 179.140625 103.230469 C 180.105469 103.933594 181.453125 104.382812 182.925781 104.566406 C 184.410156 104.757812 186.03125 104.710938 187.691406 104.507812 C 191.015625 104.09375 193.898438 103.210938 195.933594 102.484375 Z M 206.042969 90.277344 C 209.726562 94.339844 206.777344 100.132812 202.894531 102.523438 C 199.804688 104.398438 195.957031 105.070312 192.5 105.917969 C 188.347656 106.945312 184.121094 107.660156 179.910156 106.578125 C 172.433594 104.652344 174.042969 97.328125 176.386719 92.039062 C 179.582031 93.230469 183.503906 93.390625 186.332031 93.554688 C 192.460938 93.914062 199.953125 93.3125 205.394531 90.210938 C 205.542969 90.128906 205.675781 90.027344 205.808594 89.941406 C 205.871094 90.054688 205.945312 90.171875 206.042969 90.277344 " fill-opacity="1" fill-rule="nonzero"/><path fill="rgb(42.349243%, 79.219055%, 91.758728%)" d="M 211.605469 63.25 C 212.117188 61.757812 212.375 60.808594 212.191406 60.722656 C 212.007812 60.628906 211.402344 61.429688 210.636719 62.820312 C 209.863281 64.207031 209.015625 66.226562 207.898438 68.257812 C 205.710938 72.371094 202.125 74.152344 202.375 74.578125 C 202.480469 74.730469 203.417969 74.519531 204.855469 73.667969 C 206.253906 72.835938 208.003906 71.210938 209.207031 69.003906 C 210.414062 66.808594 211.089844 64.738281 211.605469 63.25 Z M 215.117188 54.425781 C 215.480469 57.582031 214.785156 61.117188 214.25 64.199219 C 213.640625 67.699219 212.226562 70.628906 209.671875 73.113281 C 208.222656 74.527344 206.292969 75.582031 204.507812 76.53125 C 202.054688 77.84375 200.339844 76.328125 198.714844 74.683594 C 201.386719 72.300781 203.550781 69.023438 205.007812 65.011719 C 206.390625 61.175781 207.941406 54.753906 206.226562 50.617188 C 209.949219 48.910156 214.558594 49.695312 215.117188 54.425781 " fill-opacity="1" fill-rule="nonzero"/><path fill="rgb(100%, 48.239136%, 67.449951%)" d="M 201.941406 63.339844 C 202.917969 61.34375 203.445312 60.074219 203.269531 59.96875 C 203.089844 59.863281 202.230469 60.957031 201.019531 62.8125 C 199.789062 64.640625 198.261719 67.292969 196.023438 69.605469 C 193.773438 71.945312 191 73.015625 188.910156 73.433594 C 188.394531 73.523438 187.921875 73.605469 187.5 73.6875 C 187.074219 73.765625 186.6875 73.785156 186.378906 73.839844 C 185.761719 73.925781 185.421875 74.023438 185.421875 74.132812 C 185.421875 74.230469 185.761719 74.328125 186.386719 74.421875 C 186.6875 74.453125 187.066406 74.527344 187.511719 74.535156 C 187.964844 74.527344 188.484375 74.519531 189.0625 74.488281 C 189.632812 74.421875 190.257812 74.335938 190.917969 74.191406 C 191.570312 74.007812 192.292969 73.847656 192.992188 73.503906 C 194.398438 72.894531 195.859375 71.945312 197.085938 70.671875 C 199.546875 68.113281 200.9375 65.308594 201.941406 63.339844 Z M 204.160156 53.882812 C 204.304688 57.726562 203.328125 61.800781 202.027344 65.394531 C 198.5625 74.945312 189.527344 78.695312 180.5 75.0625 C 187.269531 69.132812 190.464844 60.09375 193.53125 51.875 C 193.828125 51.726562 194.074219 51.484375 194.210938 51.164062 C 197.683594 49.445312 203.96875 48.902344 204.160156 53.882812 " fill-opacity="1" fill-rule="nonzero"/><path fill="rgb(100%, 48.239136%, 67.449951%)" d="M 188.347656 120.269531 C 195.484375 119 200.761719 116.363281 200.589844 116.007812 C 200.441406 115.601562 195.007812 117.558594 188.097656 118.777344 C 184.652344 119.375 181.476562 119.539062 179.355469 118.992188 C 178.292969 118.738281 177.519531 118.300781 177.046875 117.945312 C 176.804688 117.777344 176.609375 117.597656 176.476562 117.472656 C 176.339844 117.363281 176.242188 117.316406 176.207031 117.34375 C 176.164062 117.375 176.167969 117.480469 176.234375 117.652344 C 176.285156 117.820312 176.386719 118.050781 176.617188 118.339844 C 177.035156 118.921875 177.867188 119.582031 179.035156 120.011719 C 181.378906 120.90625 184.796875 120.875 188.347656 120.269531 Z M 205.703125 103.828125 C 208.996094 108.648438 206.660156 115.515625 201.980469 118.398438 C 198.433594 120.585938 193.765625 120.875 189.722656 121.050781 C 185.929688 121.203125 182.058594 121.933594 178.292969 121.3125 C 172.492188 120.378906 171.878906 111.203125 176.285156 108.074219 C 176.304688 108.058594 176.324219 108.039062 176.351562 108.019531 C 180.828125 110.828125 187.277344 109.808594 192.0625 108.773438 C 196.707031 107.769531 201.796875 106.6875 205.703125 103.828125 " fill-opacity="1" fill-rule="nonzero"/><path fill="rgb(100%, 48.239136%, 67.449951%)" d="M 196.070312 168.992188 C 196.648438 166.664062 196.441406 165.183594 196.28125 165.183594 C 196.03125 165.164062 195.847656 166.585938 195.050781 168.667969 C 194.84375 169.1875 194.632812 169.753906 194.316406 170.324219 C 194.050781 170.921875 193.667969 171.507812 193.28125 172.121094 C 192.472656 173.335938 191.445312 174.574219 190.195312 175.699219 C 188.9375 176.808594 187.578125 177.664062 186.28125 178.328125 C 185.617188 178.628906 184.996094 178.925781 184.371094 179.121094 C 183.765625 179.363281 183.175781 179.5 182.640625 179.644531 C 180.523438 180.140625 179.027344 180.136719 179.027344 180.382812 C 179.035156 180.542969 180.402344 180.957031 182.828125 180.6875 C 183.417969 180.609375 184.066406 180.527344 184.738281 180.3125 C 185.421875 180.160156 186.128906 179.882812 186.859375 179.585938 C 188.304688 178.945312 189.824219 178.039062 191.195312 176.832031 C 192.558594 175.601562 193.648438 174.214844 194.460938 172.863281 C 194.84375 172.167969 195.210938 171.507812 195.453125 170.84375 C 195.734375 170.199219 195.914062 169.5625 196.070312 168.992188 Z M 193.996094 158.378906 C 200.644531 163.847656 200.625 172.710938 194.195312 178.316406 C 189.5 182.402344 180.683594 185.390625 175.671875 180.464844 C 175.976562 180.242188 176.277344 180.007812 176.5625 179.769531 C 182.402344 174.875 184.050781 167.945312 184.082031 160.605469 C 185.628906 160.433594 187.101562 160.167969 188.367188 159.871094 C 190.242188 159.445312 192.074219 158.871094 193.890625 158.28125 C 193.925781 158.316406 193.949219 158.351562 193.996094 158.378906 " fill-opacity="1" fill-rule="nonzero"/><path fill="rgb(100%, 100%, 100%)" d="M 185.171875 62.839844 C 186.136719 60.898438 186.496094 59.613281 186.3125 59.523438 C 186.121094 59.433594 185.421875 60.550781 184.253906 62.300781 C 183.078125 64.039062 181.445312 66.441406 179.226562 68.660156 C 178.117188 69.757812 176.949219 70.671875 175.796875 71.316406 C 174.644531 71.949219 173.523438 72.316406 172.539062 72.417969 C 171.554688 72.535156 170.726562 72.441406 170.175781 72.371094 C 169.59375 72.28125 169.246094 72.234375 169.214844 72.34375 C 169.1875 72.4375 169.445312 72.660156 169.988281 72.925781 C 170.570312 73.195312 171.445312 73.464844 172.59375 73.480469 C 173.734375 73.515625 175.089844 73.203125 176.4375 72.546875 C 177.777344 71.898438 179.089844 70.910156 180.28125 69.730469 C 182.65625 67.351562 184.199219 64.753906 185.171875 62.839844 Z M 191.480469 50.453125 C 191.265625 50.597656 191.089844 50.824219 190.972656 51.117188 C 189.074219 56.214844 187.101562 61.257812 184.410156 65.988281 C 181.390625 71.261719 174.042969 79.765625 167.550781 74.152344 C 161.398438 68.832031 167.945312 58.960938 172.226562 54.925781 C 174.796875 52.503906 178.078125 50.953125 181.425781 49.964844 C 183.195312 49.445312 190.046875 47.90625 191.480469 50.453125 " fill-opacity="1" fill-rule="nonzero"/><path fill="rgb(100%, 100%, 100%)" d="M 194.632812 135.753906 C 196.777344 135.136719 197.878906 134.1875 197.761719 134.039062 C 197.644531 133.851562 196.457031 134.398438 194.390625 134.71875 C 192.328125 135.050781 189.402344 135.222656 186.226562 134.863281 C 183.058594 134.503906 180.277344 133.644531 178.535156 132.574219 C 176.765625 131.535156 176.128906 130.347656 175.902344 130.460938 C 175.832031 130.519531 175.859375 130.847656 176.152344 131.421875 C 176.457031 132 177.027344 132.746094 177.925781 133.449219 C 179.710938 134.890625 182.710938 135.988281 186.058594 136.363281 C 189.421875 136.742188 192.5 136.390625 194.632812 135.753906 Z M 204.710938 119.789062 C 209.429688 124.8125 206.253906 131.691406 201.132812 135.453125 C 197.449219 138.164062 192.347656 138.78125 187.921875 138.878906 C 184.0625 138.964844 180.078125 137.992188 176.726562 136.070312 C 172.28125 133.53125 170.878906 126.324219 175.695312 123.21875 C 179.015625 124.660156 183.230469 124.183594 186.949219 123.863281 C 193.128906 123.320312 199.402344 123.515625 204.710938 119.789062 " fill-opacity="1" fill-rule="nonzero"/><path fill="rgb(100%, 100%, 100%)" d="M 177.429688 170.609375 C 178.214844 168.820312 178.464844 167.640625 178.285156 167.570312 C 178.078125 167.476562 177.480469 168.507812 176.492188 170.109375 C 175.484375 171.691406 174.054688 173.871094 171.988281 175.707031 C 170.933594 176.609375 169.816406 177.296875 168.738281 177.785156 C 168.472656 177.898438 168.203125 178.007812 167.945312 178.113281 C 167.667969 178.191406 167.410156 178.261719 167.160156 178.347656 C 166.652344 178.523438 166.15625 178.550781 165.703125 178.648438 C 164.824219 178.765625 164.082031 178.839844 163.53125 178.84375 C 162.984375 178.871094 162.683594 178.9375 162.671875 179.042969 C 162.664062 179.148438 162.941406 179.277344 163.464844 179.425781 C 163.964844 179.597656 164.777344 179.703125 165.789062 179.710938 C 166.285156 179.675781 166.851562 179.703125 167.429688 179.558594 C 167.710938 179.507812 168.019531 179.453125 168.328125 179.382812 C 168.628906 179.285156 168.945312 179.171875 169.257812 179.074219 C 170.511719 178.601562 171.804688 177.855469 172.964844 176.851562 C 175.277344 174.804688 176.636719 172.371094 177.429688 170.609375 Z M 170.984375 157.289062 C 173.425781 160.0625 177.449219 160.867188 181.390625 160.78125 C 181.253906 171.71875 175.808594 180.832031 164.101562 181.761719 C 162.152344 181.917969 160.117188 181.753906 158.398438 180.785156 C 155.300781 179.050781 158.773438 172.488281 159.855469 170.53125 C 162.625 165.484375 167.152344 161.507812 170.984375 157.289062 " fill-opacity="1" fill-rule="nonzero"/><path fill="rgb(98.81897%, 93.328857%, 12.939453%)" d="M 221.574219 64.253906 C 221.648438 62.988281 221.457031 62.214844 221.261719 62.203125 C 220.828125 62.203125 220.492188 65.15625 218.941406 68.347656 C 218.183594 69.949219 217.285156 71.25 216.523438 72.121094 C 215.8125 72.980469 215.183594 73.496094 215.308594 73.6875 C 215.417969 73.839844 216.167969 73.703125 217.25 72.90625 C 217.773438 72.535156 218.308594 71.984375 218.851562 71.335938 C 219.382812 70.660156 219.882812 69.875 220.300781 69.003906 C 221.128906 67.238281 221.503906 65.511719 221.574219 64.253906 Z M 227.035156 61.035156 C 227.507812 69.082031 219.496094 80.488281 211.082031 75.339844 C 214.101562 72.621094 215.9375 69.1875 216.828125 64.914062 C 217.746094 60.511719 218.695312 55.085938 216.882812 50.804688 C 223.75 46.378906 226.707031 55.433594 227.035156 61.035156 " fill-opacity="1" fill-rule="nonzero"/><path fill="rgb(98.81897%, 93.328857%, 12.939453%)" d="M 166.386719 51.367188 C 168.851562 49.527344 178.867188 42.4375 180.425781 47.535156 C 178.496094 48.121094 176.804688 48.792969 175.742188 49.300781 C 167.835938 53.074219 160.714844 62.882812 163.15625 71.886719 C 163.320312 72.496094 163.535156 73.039062 163.78125 73.558594 C 159.273438 75.660156 156.339844 71.421875 156.160156 67.140625 C 156.035156 64.199219 157.777344 61.355469 159.304688 58.992188 C 161.164062 56.125 163.636719 53.414062 166.386719 51.367188 " fill-opacity="1" fill-rule="nonzero"/><path fill="rgb(98.81897%, 93.328857%, 12.939453%)" d="M 199.714844 87.210938 C 202.113281 86.472656 203.371094 85.449219 203.269531 85.3125 C 203.148438 85.101562 201.796875 85.730469 199.449219 86.175781 C 197.117188 86.660156 193.800781 86.917969 190.152344 86.804688 C 186.496094 86.648438 183.210938 86.15625 180.890625 85.558594 C 178.597656 85.003906 177.199219 84.351562 177.097656 84.558594 C 177.007812 84.71875 178.195312 85.703125 180.578125 86.582031 C 182.914062 87.472656 186.3125 88.160156 190.097656 88.304688 C 193.878906 88.429688 197.324219 87.992188 199.714844 87.210938 Z M 207.144531 78.109375 C 213.140625 88.390625 195.230469 90.761719 189.011719 90.914062 C 184.886719 91.011719 180.773438 90.480469 176.859375 89.191406 C 172.671875 87.800781 171.246094 81.414062 174.621094 78.503906 C 174.804688 78.34375 174.921875 78.164062 174.992188 77.984375 C 176.011719 77.726562 177 77.351562 177.9375 76.859375 C 177.980469 76.878906 178.011719 76.90625 178.050781 76.929688 C 184.96875 80.167969 191.480469 79.675781 196.582031 76.320312 C 200.144531 79.945312 203.003906 80.371094 207.144531 78.109375 " fill-opacity="1" fill-rule="nonzero"/><path fill="rgb(98.81897%, 93.328857%, 12.939453%)" d="M 199.277344 151.308594 C 201.863281 150.140625 203.472656 149.445312 203.417969 149.238281 C 203.359375 149.042969 201.59375 149.394531 198.898438 150.304688 C 196.171875 151.195312 192.523438 152.644531 188.414062 153.84375 C 186.359375 154.417969 184.378906 154.847656 182.558594 155.0625 C 180.746094 155.207031 179.09375 155.257812 177.75 154.996094 C 175.089844 154.597656 173.484375 153.601562 173.378906 153.855469 C 173.332031 153.953125 173.675781 154.25 174.332031 154.695312 C 174.5 154.8125 174.679688 154.925781 174.886719 155.0625 C 175.117188 155.167969 175.367188 155.277344 175.644531 155.390625 C 175.910156 155.507812 176.214844 155.632812 176.527344 155.769531 C 176.839844 155.894531 177.1875 155.945312 177.546875 156.039062 C 178.96875 156.457031 180.746094 156.527344 182.683594 156.4375 C 184.621094 156.292969 186.699219 155.882812 188.820312 155.292969 C 193.058594 154.058594 196.671875 152.441406 199.277344 151.308594 Z M 205.828125 134.808594 C 209.09375 138.5 208.761719 144.714844 207.488281 149.160156 C 206.824219 151.457031 203.945312 152.828125 200.75 153.792969 C 198.796875 154.050781 196.929688 154.507812 195.328125 155.097656 C 195.289062 155.109375 195.261719 155.132812 195.230469 155.140625 C 193.988281 155.417969 192.882812 155.679688 192.074219 155.945312 C 186.574219 157.789062 180.171875 159.445312 174.679688 156.699219 C 167.953125 153.34375 171.234375 143 174.863281 138.179688 C 178.367188 140.511719 183.164062 141.34375 187.039062 141.539062 C 193.597656 141.878906 200.625 140.046875 205.347656 135.335938 C 205.511719 135.164062 205.667969 134.988281 205.828125 134.808594 " fill-opacity="1" fill-rule="nonzero"/><path fill="rgb(98.81897%, 93.328857%, 12.939453%)" d="M 220.90625 164.484375 C 220.964844 162.902344 220.871094 161.929688 220.664062 161.902344 C 220.453125 161.882812 220.183594 162.820312 219.84375 164.339844 C 219.507812 165.851562 219.09375 167.9375 218.417969 170.144531 C 217.730469 172.339844 216.808594 174.179688 215.800781 175.195312 C 214.882812 176.21875 213.867188 176.585938 213.96875 176.808594 C 214.007812 176.90625 214.265625 176.914062 214.703125 176.851562 C 214.925781 176.832031 215.195312 176.742188 215.507812 176.59375 C 215.667969 176.511719 215.839844 176.433594 216.015625 176.34375 C 216.175781 176.230469 216.335938 176.121094 216.507812 175.996094 C 217.90625 174.992188 219.121094 172.9375 219.855469 170.589844 C 220.574219 168.238281 220.832031 166.058594 220.90625 164.484375 Z M 224.714844 160.683594 C 225.625 163.90625 225.269531 167.929688 224.257812 171.046875 C 223.386719 173.773438 221.09375 175.660156 218.746094 177.082031 C 217.132812 178.046875 211.679688 181.046875 209.128906 180.273438 C 213.535156 176.207031 216.351562 169.789062 216.496094 163.761719 C 216.566406 160.632812 215.597656 158.359375 213.988281 156.757812 C 217.972656 154.417969 223.390625 156.039062 224.714844 160.683594 " fill-opacity="1" fill-rule="nonzero"/><path fill="rgb(98.81897%, 93.328857%, 12.939453%)" d="M 154.132812 171.238281 C 156.113281 168.015625 158.238281 165.648438 157.914062 165.335938 C 157.777344 165.191406 157.058594 165.605469 156.097656 166.488281 C 155.132812 167.367188 153.910156 168.714844 152.847656 170.457031 C 151.796875 172.183594 151.183594 174.042969 151.234375 175.457031 C 151.242188 175.628906 151.242188 175.796875 151.253906 175.949219 C 151.273438 176.105469 151.304688 176.269531 151.332031 176.414062 C 151.398438 176.695312 151.457031 176.925781 151.554688 177.074219 C 151.726562 177.40625 151.863281 177.574219 151.96875 177.546875 C 152.199219 177.503906 152.046875 176.644531 152.296875 175.550781 C 152.5 174.382812 153.171875 172.84375 154.132812 171.238281 Z M 168.800781 155.578125 C 168.820312 155.605469 168.839844 155.632812 168.851562 155.660156 C 163.660156 161.355469 157.847656 166.664062 155.335938 174.167969 C 154.703125 176.082031 154.527344 177.933594 154.863281 179.523438 C 154.863281 179.523438 154.863281 179.523438 154.855469 179.523438 C 151.199219 181.125 148.078125 178.046875 147.867188 174.632812 C 147.730469 172.058594 149.148438 169.339844 150.339844 167.183594 C 151.574219 164.988281 153.261719 163.171875 155.132812 161.515625 C 157.042969 159.824219 166.902344 151.195312 168.800781 155.578125 " fill-opacity="1" fill-rule="nonzero"/><path fill="rgb(0%, 0%, 0%)" d="M 168.851562 155.660156 C 168.839844 155.632812 168.820312 155.605469 168.800781 155.578125 C 166.902344 151.195312 157.042969 159.824219 155.132812 161.515625 C 153.261719 163.171875 151.574219 164.988281 150.339844 167.183594 C 149.148438 169.339844 147.730469 172.058594 147.867188 174.632812 C 148.078125 178.046875 151.199219 181.125 154.855469 179.523438 C 154.863281 179.523438 154.863281 179.523438 154.863281 179.523438 C 154.527344 177.933594 154.703125 176.082031 155.335938 174.167969 C 157.847656 166.664062 163.660156 161.355469 168.851562 155.660156 Z M 180.425781 47.535156 C 178.867188 42.4375 168.851562 49.527344 166.386719 51.367188 C 163.636719 53.414062 161.164062 56.125 159.304688 58.992188 C 157.777344 61.355469 156.035156 64.199219 156.160156 67.140625 C 156.339844 71.421875 159.273438 75.660156 163.78125 73.558594 C 163.535156 73.039062 163.320312 72.496094 163.15625 71.886719 C 160.714844 62.882812 167.835938 53.074219 175.742188 49.300781 C 176.804688 48.792969 178.496094 48.121094 180.425781 47.535156 Z M 181.390625 160.78125 C 177.449219 160.867188 173.425781 160.0625 170.984375 157.289062 C 167.152344 161.507812 162.625 165.484375 159.855469 170.53125 C 158.773438 172.488281 155.300781 179.050781 158.398438 180.785156 C 160.117188 181.753906 162.152344 181.917969 164.101562 181.761719 C 175.808594 180.832031 181.253906 171.71875 181.390625 160.78125 Z M 190.972656 51.117188 C 191.089844 50.824219 191.265625 50.597656 191.480469 50.453125 C 190.046875 47.90625 183.195312 49.445312 181.425781 49.964844 C 178.078125 50.953125 174.796875 52.503906 172.226562 54.925781 C 167.945312 58.960938 161.398438 68.832031 167.550781 74.152344 C 174.042969 79.765625 181.390625 71.261719 184.410156 65.988281 C 187.101562 61.257812 189.074219 56.214844 190.972656 51.117188 Z M 194.195312 178.316406 C 200.625 172.710938 200.644531 163.847656 193.996094 158.378906 C 193.949219 158.351562 193.925781 158.316406 193.890625 158.28125 C 192.074219 158.871094 190.242188 159.445312 188.367188 159.871094 C 187.101562 160.167969 185.628906 160.433594 184.082031 160.605469 C 184.050781 167.945312 182.402344 174.875 176.5625 179.769531 C 176.277344 180.007812 175.976562 180.242188 175.671875 180.464844 C 180.683594 185.390625 189.5 182.402344 194.195312 178.316406 Z M 202.027344 65.394531 C 203.328125 61.800781 204.304688 57.726562 204.160156 53.882812 C 203.96875 48.902344 197.683594 49.445312 194.210938 51.164062 C 194.074219 51.484375 193.828125 51.726562 193.53125 51.875 C 190.464844 60.09375 187.269531 69.132812 180.5 75.0625 C 189.527344 78.695312 198.5625 74.945312 202.027344 65.394531 Z M 201.132812 135.453125 C 206.253906 131.691406 209.429688 124.8125 204.710938 119.789062 C 199.402344 123.515625 193.128906 123.320312 186.949219 123.863281 C 183.230469 124.183594 179.015625 124.660156 175.695312 123.21875 C 170.878906 126.324219 172.28125 133.53125 176.726562 136.070312 C 180.078125 137.992188 184.0625 138.964844 187.921875 138.878906 C 192.347656 138.78125 197.449219 138.164062 201.132812 135.453125 Z M 201.980469 118.398438 C 206.660156 115.515625 208.996094 108.648438 205.703125 103.828125 C 201.796875 106.6875 196.707031 107.769531 192.0625 108.773438 C 187.277344 109.808594 180.828125 110.828125 176.351562 108.019531 C 176.324219 108.039062 176.304688 108.058594 176.285156 108.074219 C 171.878906 111.203125 172.492188 120.378906 178.292969 121.3125 C 182.058594 121.933594 185.929688 121.203125 189.722656 121.050781 C 193.765625 120.875 198.433594 120.585938 201.980469 118.398438 Z M 202.894531 102.523438 C 206.777344 100.132812 209.726562 94.339844 206.042969 90.277344 C 205.945312 90.171875 205.871094 90.054688 205.808594 89.941406 C 205.675781 90.027344 205.542969 90.128906 205.394531 90.210938 C 199.953125 93.3125 192.460938 93.914062 186.332031 93.554688 C 183.503906 93.390625 179.582031 93.230469 176.386719 92.039062 C 174.042969 97.328125 172.433594 104.652344 179.910156 106.578125 C 184.121094 107.660156 188.347656 106.945312 192.5 105.917969 C 195.957031 105.070312 199.804688 104.398438 202.894531 102.523438 Z M 189.011719 90.914062 C 195.230469 90.761719 213.140625 88.390625 207.144531 78.109375 C 203.003906 80.371094 200.144531 79.945312 196.582031 76.320312 C 191.480469 79.675781 184.96875 80.167969 178.050781 76.929688 C 178.011719 76.90625 177.980469 76.878906 177.9375 76.859375 C 177 77.351562 176.011719 77.726562 174.992188 77.984375 C 174.921875 78.164062 174.804688 78.34375 174.621094 78.503906 C 171.246094 81.414062 172.671875 87.800781 176.859375 89.191406 C 180.773438 90.480469 184.886719 91.011719 189.011719 90.914062 Z M 207.488281 149.160156 C 208.761719 144.714844 209.09375 138.5 205.828125 134.808594 C 205.667969 134.988281 205.511719 135.164062 205.347656 135.335938 C 200.625 140.046875 193.597656 141.878906 187.039062 141.539062 C 183.164062 141.34375 178.367188 140.511719 174.863281 138.179688 C 171.234375 143 167.953125 153.34375 174.679688 156.699219 C 180.171875 159.445312 186.574219 157.789062 192.074219 155.945312 C 192.882812 155.679688 193.988281 155.417969 195.230469 155.140625 C 195.261719 155.132812 195.289062 155.109375 195.328125 155.097656 C 196.929688 154.507812 198.796875 154.050781 200.75 153.792969 C 203.945312 152.828125 206.824219 151.457031 207.488281 149.160156 Z M 195.007812 181.019531 C 205.136719 184.898438 216.097656 172.082031 213.667969 162.097656 C 211.84375 154.570312 202.757812 155.453125 196.878906 157.394531 C 203.328125 163.671875 203.5625 174.34375 196.082031 180.214844 C 195.734375 180.484375 195.378906 180.75 195.007812 181.019531 Z M 214.25 64.199219 C 214.785156 61.117188 215.480469 57.582031 215.117188 54.425781 C 214.558594 49.695312 209.949219 48.910156 206.226562 50.617188 C 207.941406 54.753906 206.390625 61.175781 205.007812 65.011719 C 203.550781 69.023438 201.386719 72.300781 198.714844 74.683594 C 200.339844 76.328125 202.054688 77.84375 204.507812 76.53125 C 206.292969 75.582031 208.222656 74.527344 209.671875 73.113281 C 212.226562 70.628906 213.640625 67.699219 214.25 64.199219 Z M 224.257812 171.046875 C 225.269531 167.929688 225.625 163.90625 224.714844 160.683594 C 223.390625 156.039062 217.972656 154.417969 213.988281 156.757812 C 215.597656 158.359375 216.566406 160.632812 216.496094 163.761719 C 216.351562 169.789062 213.535156 176.207031 209.128906 180.273438 C 211.679688 181.046875 217.132812 178.046875 218.746094 177.082031 C 221.09375 175.660156 223.386719 173.773438 224.257812 171.046875 Z M 211.082031 75.339844 C 219.496094 80.488281 227.507812 69.082031 227.035156 61.035156 C 226.707031 55.433594 223.75 46.378906 216.882812 50.804688 C 218.695312 55.085938 217.746094 60.511719 216.828125 64.914062 C 215.9375 69.1875 214.101562 72.621094 211.082031 75.339844 Z M 229.710938 61.035156 C 229.902344 70.976562 220.300781 84.019531 209.960938 77.796875 C 211.464844 81.414062 210.539062 85.488281 207.84375 88.304688 C 207.867188 88.332031 207.90625 88.351562 207.933594 88.382812 C 211.160156 91.941406 211.054688 98.515625 207.710938 102.066406 C 207.753906 102.117188 207.800781 102.15625 207.84375 102.214844 C 211.101562 106.625 210.316406 113.785156 206.699219 118 C 210.695312 122.230469 210.554688 127.96875 207.503906 132.664062 C 211.4375 136.769531 212.671875 146.328125 209.488281 151.25 C 208.824219 152.289062 208.03125 153.097656 207.144531 153.746094 C 208.785156 153.96875 210.339844 154.417969 211.699219 155.113281 C 215.492188 152.496094 221.957031 151.90625 225.1875 155.875 C 228.128906 159.511719 228.480469 165.363281 227.398438 169.804688 C 226.285156 174.363281 223.429688 177.816406 219.199219 179.882812 C 215.667969 181.597656 210.394531 184.820312 206.863281 182.074219 C 202.933594 184.65625 198.109375 185.449219 192.925781 183.03125 C 192.703125 182.933594 192.550781 182.796875 192.433594 182.644531 C 186.394531 186.039062 178.570312 187.597656 173.476562 182.074219 C 173.433594 182.027344 173.398438 181.976562 173.359375 181.929688 C 169.488281 184.015625 164.875 184.851562 160.585938 184.296875 C 158.425781 184.023438 156.917969 183.164062 155.964844 181.929688 C 151.457031 183.707031 145.570312 181.035156 145.261719 175.761719 C 144.941406 170.21875 148.058594 164.359375 152.074219 160.664062 C 154.722656 158.226562 163.542969 150.207031 168.503906 151.707031 C 167.550781 146.425781 169.523438 140.667969 172.808594 136.453125 C 172.367188 135.988281 171.960938 135.480469 171.613281 134.921875 C 169.074219 130.859375 169.667969 124.871094 173.324219 121.679688 C 172.691406 121.089844 172.113281 120.382812 171.628906 119.511719 C 169.523438 115.71875 171.070312 109.199219 174.285156 106.277344 C 170.09375 101.574219 171.613281 96.023438 173.996094 90.835938 C 173.089844 90.21875 172.316406 89.457031 171.765625 88.5 C 169.988281 85.398438 169.390625 81.394531 171.234375 78.371094 C 168.976562 78.234375 166.863281 77.421875 165.300781 75.796875 C 159.871094 78.550781 153.792969 74.742188 153.539062 68.472656 C 153.25 61.683594 157.933594 54.871094 162.992188 50.652344 C 166.71875 47.535156 180.9375 37.542969 183.023438 46.832031 C 187.21875 45.886719 191.757812 45.75 193.578125 48.515625 C 196.707031 47.199219 201.824219 46.394531 204.59375 48.445312 C 207.664062 46.914062 212.589844 46.308594 215.339844 48.613281 C 224.101562 42.679688 229.558594 53.207031 229.710938 61.035156 " fill-opacity="1" fill-rule="nonzero"/><path fill="rgb(0%, 0%, 0%)" d="M 221.261719 62.203125 C 221.457031 62.214844 221.648438 62.988281 221.574219 64.253906 C 221.503906 65.511719 221.128906 67.238281 220.300781 69.003906 C 219.882812 69.875 219.382812 70.660156 218.851562 71.335938 C 218.308594 71.984375 217.773438 72.535156 217.25 72.90625 C 216.167969 73.703125 215.417969 73.839844 215.308594 73.6875 C 215.183594 73.496094 215.8125 72.980469 216.523438 72.121094 C 217.285156 71.25 218.183594 69.949219 218.941406 68.347656 C 220.492188 65.15625 220.828125 62.203125 221.261719 62.203125 " fill-opacity="1" fill-rule="nonzero"/><path fill="rgb(0%, 0%, 0%)" d="M 220.664062 161.902344 C 220.871094 161.929688 220.964844 162.902344 220.90625 164.484375 C 220.832031 166.058594 220.574219 168.238281 219.855469 170.589844 C 219.121094 172.9375 217.90625 174.992188 216.507812 175.996094 C 216.335938 176.121094 216.175781 176.230469 216.015625 176.34375 C 215.839844 176.433594 215.667969 176.511719 215.507812 176.59375 C 215.195312 176.742188 214.925781 176.832031 214.703125 176.851562 C 214.265625 176.914062 214.007812 176.90625 213.96875 176.808594 C 213.867188 176.585938 214.882812 176.21875 215.800781 175.195312 C 216.808594 174.179688 217.730469 172.339844 218.417969 170.144531 C 219.09375 167.9375 219.507812 165.851562 219.84375 164.339844 C 220.183594 162.820312 220.453125 161.882812 220.664062 161.902344 " fill-opacity="1" fill-rule="nonzero"/><path fill="rgb(0%, 0%, 0%)" d="M 212.191406 60.722656 C 212.375 60.808594 212.117188 61.757812 211.605469 63.25 C 211.089844 64.738281 210.414062 66.808594 209.207031 69.003906 C 208.003906 71.210938 206.253906 72.835938 204.855469 73.667969 C 203.417969 74.519531 202.480469 74.730469 202.375 74.578125 C 202.125 74.152344 205.710938 72.371094 207.898438 68.257812 C 209.015625 66.226562 209.863281 64.207031 210.636719 62.820312 C 211.402344 61.429688 212.007812 60.628906 212.191406 60.722656 " fill-opacity="1" fill-rule="nonzero"/><path fill="rgb(0%, 0%, 0%)" d="M 211.589844 163.546875 C 211.785156 163.574219 211.832031 164.773438 211.496094 166.664062 C 211.140625 168.554688 210.367188 171.167969 208.71875 173.695312 C 207.886719 174.9375 206.910156 176.007812 205.90625 176.851562 C 204.890625 177.691406 203.859375 178.273438 202.945312 178.648438 C 201.0625 179.390625 199.902344 179.34375 199.851562 179.195312 C 199.757812 178.960938 200.957031 178.585938 202.472656 177.691406 C 203.25 177.226562 204.121094 176.609375 204.988281 175.804688 C 205.847656 174.992188 206.699219 173.996094 207.460938 172.855469 C 208.976562 170.550781 209.871094 168.152344 210.464844 166.398438 C 211.054688 164.640625 211.375 163.507812 211.589844 163.546875 " fill-opacity="1" fill-rule="nonzero"/><path fill="rgb(0%, 0%, 0%)" d="M 203.417969 149.238281 C 203.472656 149.445312 201.863281 150.140625 199.277344 151.308594 C 196.671875 152.441406 193.058594 154.058594 188.820312 155.292969 C 186.699219 155.882812 184.621094 156.292969 182.683594 156.4375 C 180.746094 156.527344 178.96875 156.457031 177.546875 156.039062 C 177.1875 155.945312 176.839844 155.894531 176.527344 155.769531 C 176.214844 155.632812 175.910156 155.507812 175.644531 155.390625 C 175.367188 155.277344 175.117188 155.167969 174.886719 155.0625 C 174.679688 154.925781 174.5 154.8125 174.332031 154.695312 C 173.675781 154.25 173.332031 153.953125 173.378906 153.855469 C 173.484375 153.601562 175.089844 154.597656 177.75 154.996094 C 179.09375 155.257812 180.746094 155.207031 182.558594 155.0625 C 184.378906 154.847656 186.359375 154.417969 188.414062 153.84375 C 192.523438 152.644531 196.171875 151.195312 198.898438 150.304688 C 201.59375 149.394531 203.359375 149.042969 203.417969 149.238281 " fill-opacity="1" fill-rule="nonzero"/><path fill="rgb(0%, 0%, 0%)" d="M 203.269531 59.96875 C 203.445312 60.074219 202.917969 61.34375 201.941406 63.339844 C 200.9375 65.308594 199.546875 68.113281 197.085938 70.671875 C 195.859375 71.945312 194.398438 72.894531 192.992188 73.503906 C 192.292969 73.847656 191.570312 74.007812 190.917969 74.191406 C 190.257812 74.335938 189.632812 74.421875 189.0625 74.488281 C 188.484375 74.519531 187.964844 74.527344 187.511719 74.535156 C 187.066406 74.527344 186.6875 74.453125 186.386719 74.421875 C 185.761719 74.328125 185.421875 74.230469 185.421875 74.132812 C 185.421875 74.023438 185.761719 73.925781 186.378906 73.839844 C 186.6875 73.785156 187.074219 73.765625 187.5 73.6875 C 187.921875 73.605469 188.394531 73.523438 188.910156 73.433594 C 191 73.015625 193.773438 71.945312 196.023438 69.605469 C 198.261719 67.292969 199.789062 64.640625 201.019531 62.8125 C 202.230469 60.957031 203.089844 59.863281 203.269531 59.96875 " fill-opacity="1" fill-rule="nonzero"/><path fill="rgb(0%, 0%, 0%)" d="M 203.269531 85.3125 C 203.371094 85.449219 202.113281 86.472656 199.714844 87.210938 C 197.324219 87.992188 193.878906 88.429688 190.097656 88.304688 C 186.3125 88.160156 182.914062 87.472656 180.578125 86.582031 C 178.195312 85.703125 177.007812 84.71875 177.097656 84.558594 C 177.199219 84.351562 178.597656 85.003906 180.890625 85.558594 C 183.210938 86.15625 186.496094 86.648438 190.152344 86.804688 C 193.800781 86.917969 197.117188 86.660156 199.449219 86.175781 C 201.796875 85.730469 203.148438 85.101562 203.269531 85.3125 " fill-opacity="1" fill-rule="nonzero"/><path fill="rgb(0%, 0%, 0%)" d="M 200.589844 116.007812 C 200.761719 116.363281 195.484375 119 188.347656 120.269531 C 184.796875 120.875 181.378906 120.90625 179.035156 120.011719 C 177.867188 119.582031 177.035156 118.921875 176.617188 118.339844 C 176.386719 118.050781 176.285156 117.820312 176.234375 117.652344 C 176.167969 117.480469 176.164062 117.375 176.207031 117.34375 C 176.242188 117.316406 176.339844 117.363281 176.476562 117.472656 C 176.609375 117.597656 176.804688 117.777344 177.046875 117.945312 C 177.519531 118.300781 178.292969 118.738281 179.355469 118.992188 C 181.476562 119.539062 184.652344 119.375 188.097656 118.777344 C 195.007812 117.558594 200.441406 115.601562 200.589844 116.007812 " fill-opacity="1" fill-rule="nonzero"/><path fill="rgb(0%, 0%, 0%)" d="M 199.101562 100.957031 C 199.160156 101.144531 197.964844 101.742188 195.933594 102.484375 C 193.898438 103.210938 191.015625 104.09375 187.691406 104.507812 C 186.03125 104.710938 184.410156 104.757812 182.925781 104.566406 C 181.453125 104.382812 180.105469 103.933594 179.140625 103.230469 C 178.171875 102.542969 177.664062 101.683594 177.472656 101.046875 C 177.277344 100.4375 177.316406 100.097656 177.394531 100.058594 C 177.5 100.007812 177.671875 100.339844 178.011719 100.804688 C 178.3125 101.25 178.859375 101.875 179.710938 102.324219 C 181.417969 103.296875 184.351562 103.40625 187.511719 103.011719 C 190.6875 102.609375 193.550781 101.914062 195.636719 101.457031 C 197.714844 100.992188 199.035156 100.753906 199.101562 100.957031 " fill-opacity="1" fill-rule="nonzero"/><path fill="rgb(0%, 0%, 0%)" d="M 197.761719 134.039062 C 197.878906 134.1875 196.777344 135.136719 194.632812 135.753906 C 192.5 136.390625 189.421875 136.742188 186.058594 136.363281 C 182.710938 135.988281 179.710938 134.890625 177.925781 133.449219 C 177.027344 132.746094 176.457031 132 176.152344 131.421875 C 175.859375 130.847656 175.832031 130.519531 175.902344 130.460938 C 176.128906 130.347656 176.765625 131.535156 178.535156 132.574219 C 180.277344 133.644531 183.058594 134.503906 186.226562 134.863281 C 189.402344 135.222656 192.328125 135.050781 194.390625 134.71875 C 196.457031 134.398438 197.644531 133.851562 197.761719 134.039062 " fill-opacity="1" fill-rule="nonzero"/><path fill="rgb(0%, 0%, 0%)" d="M 196.28125 165.183594 C 196.441406 165.183594 196.648438 166.664062 196.070312 168.992188 C 195.914062 169.5625 195.734375 170.199219 195.453125 170.84375 C 195.210938 171.507812 194.84375 172.167969 194.460938 172.863281 C 193.648438 174.214844 192.558594 175.601562 191.195312 176.832031 C 189.824219 178.039062 188.304688 178.945312 186.859375 179.585938 C 186.128906 179.882812 185.421875 180.160156 184.738281 180.3125 C 184.066406 180.527344 183.417969 180.609375 182.828125 180.6875 C 180.402344 180.957031 179.035156 180.542969 179.027344 180.382812 C 179.027344 180.136719 180.523438 180.140625 182.640625 179.644531 C 183.175781 179.5 183.765625 179.363281 184.371094 179.121094 C 184.996094 178.925781 185.617188 178.628906 186.28125 178.328125 C 187.578125 177.664062 188.9375 176.808594 190.195312 175.699219 C 191.445312 174.574219 192.472656 173.335938 193.28125 172.121094 C 193.667969 171.507812 194.050781 170.921875 194.316406 170.324219 C 194.632812 169.753906 194.84375 169.1875 195.050781 168.667969 C 195.847656 166.585938 196.03125 165.164062 196.28125 165.183594 " fill-opacity="1" fill-rule="nonzero"/><path fill="rgb(0%, 0%, 0%)" d="M 186.3125 59.523438 C 186.496094 59.613281 186.136719 60.898438 185.171875 62.839844 C 184.199219 64.753906 182.65625 67.351562 180.28125 69.730469 C 179.089844 70.910156 177.777344 71.898438 176.4375 72.546875 C 175.089844 73.203125 173.734375 73.515625 172.59375 73.480469 C 171.445312 73.464844 170.570312 73.195312 169.988281 72.925781 C 169.445312 72.660156 169.1875 72.4375 169.214844 72.34375 C 169.246094 72.234375 169.59375 72.28125 170.175781 72.371094 C 170.726562 72.441406 171.554688 72.535156 172.539062 72.417969 C 173.523438 72.316406 174.644531 71.949219 175.796875 71.316406 C 176.949219 70.671875 178.117188 69.757812 179.226562 68.660156 C 181.445312 66.441406 183.078125 64.039062 184.253906 62.300781 C 185.421875 60.550781 186.121094 59.433594 186.3125 59.523438 " fill-opacity="1" fill-rule="nonzero"/><path fill="rgb(0%, 0%, 0%)" d="M 178.285156 167.570312 C 178.464844 167.640625 178.214844 168.820312 177.429688 170.609375 C 176.636719 172.371094 175.277344 174.804688 172.964844 176.851562 C 171.804688 177.855469 170.511719 178.601562 169.257812 179.074219 C 168.945312 179.171875 168.628906 179.285156 168.328125 179.382812 C 168.019531 179.453125 167.710938 179.507812 167.429688 179.558594 C 166.851562 179.703125 166.285156 179.675781 165.789062 179.710938 C 164.777344 179.703125 163.964844 179.597656 163.464844 179.425781 C 162.941406 179.277344 162.664062 179.148438 162.671875 179.042969 C 162.683594 178.9375 162.984375 178.871094 163.53125 178.84375 C 164.082031 178.839844 164.824219 178.765625 165.703125 178.648438 C 166.15625 178.550781 166.652344 178.523438 167.160156 178.347656 C 167.410156 178.261719 167.667969 178.191406 167.945312 178.113281 C 168.203125 178.007812 168.472656 177.898438 168.738281 177.785156 C 169.816406 177.296875 170.933594 176.609375 171.988281 175.707031 C 174.054688 173.871094 175.484375 171.691406 176.492188 170.109375 C 177.480469 168.507812 178.078125 167.476562 178.285156 167.570312 " fill-opacity="1" fill-rule="nonzero"/><path fill="rgb(0%, 0%, 0%)" d="M 157.914062 165.335938 C 158.238281 165.648438 156.113281 168.015625 154.132812 171.238281 C 153.171875 172.84375 152.5 174.382812 152.296875 175.550781 C 152.046875 176.644531 152.199219 177.503906 151.96875 177.546875 C 151.863281 177.574219 151.726562 177.40625 151.554688 177.074219 C 151.457031 176.925781 151.398438 176.695312 151.332031 176.414062 C 151.304688 176.269531 151.273438 176.105469 151.253906 175.949219 C 151.242188 175.796875 151.242188 175.628906 151.234375 175.457031 C 151.183594 174.042969 151.796875 172.183594 152.847656 170.457031 C 153.910156 168.714844 155.132812 167.367188 156.097656 166.488281 C 157.058594 165.605469 157.777344 165.191406 157.914062 165.335938 " fill-opacity="1" fill-rule="nonzero"/><g fill="rgb(0%, 0%, 0%)" fill-opacity="1"><g transform="translate(34.34422, 249.571564)"><g><path d="M 4.976562 -1.210938 C 4.976562 -0.523438 5.496094 0 6.238281 0 L 21.464844 0 C 33.890625 0 42.738281 -8.824219 42.738281 -20.859375 C 42.738281 -32.980469 33.890625 -41.75 21.574219 -41.75 L 6.210938 -41.75 C 5.496094 -41.75 4.976562 -41.253906 4.976562 -40.539062 Z M 12.753906 -7.367188 L 12.753906 -34.464844 L 21.546875 -34.492188 C 29.300781 -34.519531 34.960938 -28.53125 34.960938 -20.859375 C 34.960938 -13.386719 29.300781 -7.367188 21.4375 -7.367188 Z M 12.753906 -7.367188 "/></g></g></g><g fill="rgb(0%, 0%, 0%)" fill-opacity="1"><g transform="translate(88.112352, 249.571564)"><g><path d="M 35.207031 -7.367188 L 12.753906 -7.367188 L 12.753906 -15.75 L 30.207031 -15.75 C 31.113281 -15.75 31.664062 -16.242188 31.664062 -16.984375 L 31.664062 -21.574219 C 31.664062 -22.402344 31.113281 -22.867188 30.207031 -22.867188 L 12.753906 -22.867188 L 12.753906 -34.382812 L 35.042969 -34.382812 C 35.839844 -34.382812 36.308594 -34.851562 36.308594 -35.648438 L 36.308594 -40.539062 C 36.308594 -41.28125 35.839844 -41.75 35.042969 -41.75 L 6.210938 -41.75 C 5.414062 -41.75 4.976562 -41.335938 4.976562 -40.511719 L 4.976562 -1.210938 C 4.976562 -0.441406 5.414062 0 6.210938 0 L 35.621094 0 C 36.390625 0 36.886719 -0.46875 36.886719 -1.210938 L 36.886719 -5.828125 C 36.886719 -6.761719 36.226562 -7.367188 35.207031 -7.367188 Z M 35.207031 -7.367188 "/></g></g></g><g fill="rgb(0%, 0%, 0%)" fill-opacity="1"><g transform="translate(136.356145, 249.571564)"><g><path d="M 41.226562 -41.804688 L 35.320312 -41.804688 C 34.742188 -41.804688 34.410156 -41.476562 34.410156 -40.898438 L 34.410156 -15.96875 L 7.640625 -41.308594 C 7.0625 -41.832031 6.679688 -42.300781 6.101562 -42.300781 L 5.992188 -42.300781 C 5.414062 -42.300781 4.976562 -41.777344 4.976562 -41.089844 L 4.976562 -0.878906 C 4.976562 -0.300781 5.332031 0.0273438 5.910156 0.0273438 L 11.847656 0.0273438 C 12.394531 0.0273438 12.753906 -0.300781 12.753906 -0.878906 L 12.753906 -25.671875 L 39.332031 -0.441406 C 39.9375 0.0820312 40.347656 0.550781 41.035156 0.550781 L 41.089844 0.550781 C 41.667969 0.550781 42.164062 0.0820312 42.164062 -0.742188 L 42.164062 -40.898438 C 42.164062 -41.449219 41.832031 -41.804688 41.226562 -41.804688 Z M 41.226562 -41.804688 "/></g></g></g><g fill="rgb(0%, 0%, 0%)" fill-opacity="1"><g transform="translate(192.048177, 249.571564)"><g><path d="M 1.621094 -36.199219 C 1.621094 -35.402344 2.089844 -34.960938 2.832031 -34.960938 L 13.21875 -34.960938 L 13.21875 -1.183594 C 13.21875 -0.414062 13.660156 0.0273438 14.429688 0.0273438 L 19.734375 0.0273438 C 20.53125 0.0273438 20.972656 -0.414062 20.972656 -1.183594 L 20.972656 -34.960938 L 31.441406 -34.960938 C 32.183594 -34.960938 32.625 -35.429688 32.625 -36.199219 L 32.625 -40.539062 C 32.625 -41.28125 32.183594 -41.75 31.441406 -41.75 L 2.832031 -41.75 C 2.0625 -41.75 1.621094 -41.308594 1.621094 -40.539062 Z M 1.621094 -36.199219 "/></g></g></g><g fill="rgb(0%, 0%, 0%)" fill-opacity="1"><g transform="translate(234.850088, 249.571564)"><g><path d="M 12.726562 -40.871094 C 12.726562 -41.476562 12.394531 -41.804688 11.792969 -41.804688 L 5.882812 -41.804688 C 5.304688 -41.804688 4.976562 -41.476562 4.976562 -40.871094 L 4.976562 -0.878906 C 4.976562 -0.300781 5.304688 0.0273438 5.882812 0.0273438 L 11.792969 0.0273438 C 12.394531 0.0273438 12.726562 -0.300781 12.726562 -0.878906 Z M 12.726562 -40.871094 "/></g></g></g><g fill="rgb(0%, 0%, 0%)" fill-opacity="1"><g transform="translate(261.106491, 249.571564)"><g><path d="M 1.621094 -36.199219 C 1.621094 -35.402344 2.089844 -34.960938 2.832031 -34.960938 L 13.21875 -34.960938 L 13.21875 -1.183594 C 13.21875 -0.414062 13.660156 0.0273438 14.429688 0.0273438 L 19.734375 0.0273438 C 20.53125 0.0273438 20.972656 -0.414062 20.972656 -1.183594 L 20.972656 -34.960938 L 31.441406 -34.960938 C 32.183594 -34.960938 32.625 -35.429688 32.625 -36.199219 L 32.625 -40.539062 C 32.625 -41.28125 32.183594 -41.75 31.441406 -41.75 L 2.832031 -41.75 C 2.0625 -41.75 1.621094 -41.308594 1.621094 -40.539062 Z M 1.621094 -36.199219 "/></g></g></g><g fill="rgb(0%, 0%, 0%)" fill-opacity="1"><g transform="translate(303.908403, 249.571564)"><g><path d="M 35.097656 -41.804688 L 28.859375 -41.804688 C 28.253906 -41.804688 27.707031 -41.421875 27.347656 -40.761719 L 18.359375 -24.433594 L 9.371094 -40.734375 C 9.042969 -41.363281 8.464844 -41.804688 7.914062 -41.804688 L 1.675781 -41.804688 C 0.824219 -41.804688 0.414062 -41.28125 0.796875 -40.347656 L 14.457031 -16.574219 L 14.457031 -1.210938 C 14.457031 -0.441406 14.925781 0.0273438 15.722656 0.0273438 L 21.054688 0.0273438 C 21.824219 0.0273438 22.234375 -0.441406 22.234375 -1.210938 L 22.234375 -16.519531 L 35.921875 -40.347656 C 36.308594 -41.253906 35.949219 -41.804688 35.097656 -41.804688 Z M 35.097656 -41.804688 "/></g></g></g></svg>